<mxfile host="Electron" agent="Mozilla/5.0 (Windows NT 10.0; Win64; x64) AppleWebKit/537.36 (KHTML, like Gecko) draw.io/24.7.8 Chrome/128.0.6613.36 Electron/32.0.1 Safari/537.36" version="24.7.8">
  <diagram name="Page-1" id="U5jIEejSyX-uajcfV4bv">
    <mxGraphModel dx="1290" dy="1769" grid="1" gridSize="10" guides="1" tooltips="1" connect="1" arrows="1" fold="1" page="1" pageScale="1" pageWidth="850" pageHeight="1100" math="0" shadow="0">
      <root>
        <mxCell id="0" />
        <mxCell id="1" parent="0" />
        <mxCell id="8NPFuA1XheMR9wquFf6c-18" style="edgeStyle=orthogonalEdgeStyle;rounded=0;orthogonalLoop=1;jettySize=auto;html=1;exitX=1;exitY=0.5;exitDx=0;exitDy=0;entryX=0;entryY=0.5;entryDx=0;entryDy=0;" parent="1" source="8NPFuA1XheMR9wquFf6c-1" target="8NPFuA1XheMR9wquFf6c-17" edge="1">
          <mxGeometry relative="1" as="geometry" />
        </mxCell>
        <mxCell id="8NPFuA1XheMR9wquFf6c-31" style="edgeStyle=orthogonalEdgeStyle;rounded=0;orthogonalLoop=1;jettySize=auto;html=1;exitX=0.5;exitY=1;exitDx=0;exitDy=0;" parent="1" source="8NPFuA1XheMR9wquFf6c-1" target="8NPFuA1XheMR9wquFf6c-22" edge="1">
          <mxGeometry relative="1" as="geometry" />
        </mxCell>
        <mxCell id="8NPFuA1XheMR9wquFf6c-1" value="Company" style="whiteSpace=wrap;html=1;align=center;" parent="1" vertex="1">
          <mxGeometry x="90" y="200" width="100" height="40" as="geometry" />
        </mxCell>
        <mxCell id="8NPFuA1XheMR9wquFf6c-14" style="edgeStyle=orthogonalEdgeStyle;rounded=0;orthogonalLoop=1;jettySize=auto;html=1;exitX=1;exitY=0.25;exitDx=0;exitDy=0;" parent="1" source="8NPFuA1XheMR9wquFf6c-2" target="8NPFuA1XheMR9wquFf6c-5" edge="1">
          <mxGeometry relative="1" as="geometry" />
        </mxCell>
        <mxCell id="8NPFuA1XheMR9wquFf6c-34" style="edgeStyle=orthogonalEdgeStyle;rounded=0;orthogonalLoop=1;jettySize=auto;html=1;exitX=0.5;exitY=1;exitDx=0;exitDy=0;entryX=0.5;entryY=0;entryDx=0;entryDy=0;" parent="1" source="8NPFuA1XheMR9wquFf6c-2" target="8NPFuA1XheMR9wquFf6c-33" edge="1">
          <mxGeometry relative="1" as="geometry" />
        </mxCell>
        <mxCell id="8NPFuA1XheMR9wquFf6c-50" style="edgeStyle=orthogonalEdgeStyle;rounded=0;orthogonalLoop=1;jettySize=auto;html=1;exitX=0.25;exitY=0;exitDx=0;exitDy=0;entryX=1;entryY=1;entryDx=0;entryDy=0;" parent="1" source="8NPFuA1XheMR9wquFf6c-2" target="8NPFuA1XheMR9wquFf6c-21" edge="1">
          <mxGeometry relative="1" as="geometry" />
        </mxCell>
        <mxCell id="8NPFuA1XheMR9wquFf6c-58" style="edgeStyle=orthogonalEdgeStyle;rounded=0;orthogonalLoop=1;jettySize=auto;html=1;exitX=0.5;exitY=0;exitDx=0;exitDy=0;entryX=0.5;entryY=1;entryDx=0;entryDy=0;" parent="1" source="8NPFuA1XheMR9wquFf6c-2" target="8NPFuA1XheMR9wquFf6c-51" edge="1">
          <mxGeometry relative="1" as="geometry" />
        </mxCell>
        <mxCell id="8NPFuA1XheMR9wquFf6c-2" value="Employee" style="whiteSpace=wrap;html=1;align=center;" parent="1" vertex="1">
          <mxGeometry x="470" y="200" width="100" height="40" as="geometry" />
        </mxCell>
        <mxCell id="8NPFuA1XheMR9wquFf6c-12" style="edgeStyle=orthogonalEdgeStyle;rounded=0;orthogonalLoop=1;jettySize=auto;html=1;exitX=0;exitY=1;exitDx=0;exitDy=0;entryX=1;entryY=0;entryDx=0;entryDy=0;" parent="1" source="8NPFuA1XheMR9wquFf6c-4" target="8NPFuA1XheMR9wquFf6c-9" edge="1">
          <mxGeometry relative="1" as="geometry" />
        </mxCell>
        <mxCell id="8NPFuA1XheMR9wquFf6c-4" value="Name" style="ellipse;whiteSpace=wrap;html=1;align=center;" parent="1" vertex="1">
          <mxGeometry x="680" y="320" width="100" height="40" as="geometry" />
        </mxCell>
        <mxCell id="8NPFuA1XheMR9wquFf6c-5" value="Gender" style="ellipse;whiteSpace=wrap;html=1;align=center;" parent="1" vertex="1">
          <mxGeometry x="610" y="230" width="100" height="40" as="geometry" />
        </mxCell>
        <mxCell id="8NPFuA1XheMR9wquFf6c-6" value="Birth Date" style="ellipse;whiteSpace=wrap;html=1;align=center;" parent="1" vertex="1">
          <mxGeometry x="600" y="140" width="100" height="40" as="geometry" />
        </mxCell>
        <mxCell id="8NPFuA1XheMR9wquFf6c-9" value="FName" style="ellipse;whiteSpace=wrap;html=1;align=center;" parent="1" vertex="1">
          <mxGeometry x="600" y="360" width="100" height="40" as="geometry" />
        </mxCell>
        <mxCell id="8NPFuA1XheMR9wquFf6c-10" value="LName" style="ellipse;whiteSpace=wrap;html=1;align=center;" parent="1" vertex="1">
          <mxGeometry x="750" y="370" width="100" height="40" as="geometry" />
        </mxCell>
        <mxCell id="8NPFuA1XheMR9wquFf6c-11" style="edgeStyle=orthogonalEdgeStyle;rounded=0;orthogonalLoop=1;jettySize=auto;html=1;exitX=0.5;exitY=1;exitDx=0;exitDy=0;entryX=0.432;entryY=0.005;entryDx=0;entryDy=0;entryPerimeter=0;" parent="1" source="8NPFuA1XheMR9wquFf6c-2" target="8NPFuA1XheMR9wquFf6c-4" edge="1">
          <mxGeometry relative="1" as="geometry" />
        </mxCell>
        <mxCell id="8NPFuA1XheMR9wquFf6c-13" style="edgeStyle=orthogonalEdgeStyle;rounded=0;orthogonalLoop=1;jettySize=auto;html=1;exitX=1;exitY=0.5;exitDx=0;exitDy=0;entryX=0.38;entryY=0.025;entryDx=0;entryDy=0;entryPerimeter=0;" parent="1" source="8NPFuA1XheMR9wquFf6c-4" target="8NPFuA1XheMR9wquFf6c-10" edge="1">
          <mxGeometry relative="1" as="geometry" />
        </mxCell>
        <mxCell id="8NPFuA1XheMR9wquFf6c-15" style="edgeStyle=orthogonalEdgeStyle;rounded=0;orthogonalLoop=1;jettySize=auto;html=1;exitX=0.75;exitY=0;exitDx=0;exitDy=0;entryX=0.008;entryY=0.755;entryDx=0;entryDy=0;entryPerimeter=0;" parent="1" source="8NPFuA1XheMR9wquFf6c-2" target="8NPFuA1XheMR9wquFf6c-6" edge="1">
          <mxGeometry relative="1" as="geometry" />
        </mxCell>
        <mxCell id="8NPFuA1XheMR9wquFf6c-19" style="edgeStyle=orthogonalEdgeStyle;rounded=0;orthogonalLoop=1;jettySize=auto;html=1;exitX=1;exitY=0.5;exitDx=0;exitDy=0;entryX=0;entryY=0.5;entryDx=0;entryDy=0;" parent="1" source="8NPFuA1XheMR9wquFf6c-17" target="8NPFuA1XheMR9wquFf6c-2" edge="1">
          <mxGeometry relative="1" as="geometry" />
        </mxCell>
        <mxCell id="8NPFuA1XheMR9wquFf6c-17" value="has" style="shape=rhombus;perimeter=rhombusPerimeter;whiteSpace=wrap;html=1;align=center;" parent="1" vertex="1">
          <mxGeometry x="270" y="190" width="120" height="60" as="geometry" />
        </mxCell>
        <mxCell id="8NPFuA1XheMR9wquFf6c-20" style="edgeStyle=orthogonalEdgeStyle;rounded=0;orthogonalLoop=1;jettySize=auto;html=1;exitX=0;exitY=0.75;exitDx=0;exitDy=0;entryX=0.823;entryY=0.67;entryDx=0;entryDy=0;entryPerimeter=0;" parent="1" source="8NPFuA1XheMR9wquFf6c-2" target="8NPFuA1XheMR9wquFf6c-17" edge="1">
          <mxGeometry relative="1" as="geometry" />
        </mxCell>
        <mxCell id="8NPFuA1XheMR9wquFf6c-21" value="&lt;span style=&quot;border-bottom: 1px dotted&quot;&gt;SSN&lt;/span&gt;" style="ellipse;whiteSpace=wrap;html=1;align=center;" parent="1" vertex="1">
          <mxGeometry x="390" y="130" width="100" height="40" as="geometry" />
        </mxCell>
        <mxCell id="8NPFuA1XheMR9wquFf6c-32" style="edgeStyle=orthogonalEdgeStyle;rounded=0;orthogonalLoop=1;jettySize=auto;html=1;exitX=0.5;exitY=1;exitDx=0;exitDy=0;" parent="1" source="8NPFuA1XheMR9wquFf6c-22" target="8NPFuA1XheMR9wquFf6c-23" edge="1">
          <mxGeometry relative="1" as="geometry" />
        </mxCell>
        <mxCell id="8NPFuA1XheMR9wquFf6c-22" value="has" style="shape=rhombus;perimeter=rhombusPerimeter;whiteSpace=wrap;html=1;align=center;" parent="1" vertex="1">
          <mxGeometry x="80" y="360" width="120" height="60" as="geometry" />
        </mxCell>
        <mxCell id="8NPFuA1XheMR9wquFf6c-28" style="edgeStyle=orthogonalEdgeStyle;rounded=0;orthogonalLoop=1;jettySize=auto;html=1;exitX=0.25;exitY=1;exitDx=0;exitDy=0;entryX=1;entryY=0;entryDx=0;entryDy=0;" parent="1" source="8NPFuA1XheMR9wquFf6c-23" target="8NPFuA1XheMR9wquFf6c-26" edge="1">
          <mxGeometry relative="1" as="geometry" />
        </mxCell>
        <mxCell id="8NPFuA1XheMR9wquFf6c-29" style="edgeStyle=orthogonalEdgeStyle;rounded=0;orthogonalLoop=1;jettySize=auto;html=1;exitX=0.5;exitY=1;exitDx=0;exitDy=0;entryX=0.5;entryY=0;entryDx=0;entryDy=0;" parent="1" source="8NPFuA1XheMR9wquFf6c-23" target="8NPFuA1XheMR9wquFf6c-27" edge="1">
          <mxGeometry relative="1" as="geometry" />
        </mxCell>
        <mxCell id="8NPFuA1XheMR9wquFf6c-23" value="Department" style="whiteSpace=wrap;html=1;align=center;" parent="1" vertex="1">
          <mxGeometry x="90" y="510" width="100" height="40" as="geometry" />
        </mxCell>
        <mxCell id="8NPFuA1XheMR9wquFf6c-26" value="location" style="ellipse;whiteSpace=wrap;html=1;align=center;" parent="1" vertex="1">
          <mxGeometry x="10" y="570" width="100" height="40" as="geometry" />
        </mxCell>
        <mxCell id="8NPFuA1XheMR9wquFf6c-27" value="DName" style="ellipse;whiteSpace=wrap;html=1;align=center;" parent="1" vertex="1">
          <mxGeometry x="110" y="600" width="100" height="40" as="geometry" />
        </mxCell>
        <mxCell id="8NPFuA1XheMR9wquFf6c-30" style="edgeStyle=orthogonalEdgeStyle;rounded=0;orthogonalLoop=1;jettySize=auto;html=1;exitX=1;exitY=0.5;exitDx=0;exitDy=0;entryX=0.44;entryY=0.065;entryDx=0;entryDy=0;entryPerimeter=0;" parent="1" source="8NPFuA1XheMR9wquFf6c-23" edge="1">
          <mxGeometry relative="1" as="geometry">
            <mxPoint x="264" y="572.5999999999999" as="targetPoint" />
          </mxGeometry>
        </mxCell>
        <mxCell id="8NPFuA1XheMR9wquFf6c-36" style="edgeStyle=orthogonalEdgeStyle;rounded=0;orthogonalLoop=1;jettySize=auto;html=1;exitX=0.5;exitY=1;exitDx=0;exitDy=0;entryX=0.5;entryY=0;entryDx=0;entryDy=0;" parent="1" source="8NPFuA1XheMR9wquFf6c-33" target="8NPFuA1XheMR9wquFf6c-35" edge="1">
          <mxGeometry relative="1" as="geometry" />
        </mxCell>
        <mxCell id="8NPFuA1XheMR9wquFf6c-33" value="Work" style="shape=rhombus;perimeter=rhombusPerimeter;whiteSpace=wrap;html=1;align=center;" parent="1" vertex="1">
          <mxGeometry x="460" y="350" width="120" height="60" as="geometry" />
        </mxCell>
        <mxCell id="8NPFuA1XheMR9wquFf6c-44" style="edgeStyle=orthogonalEdgeStyle;rounded=0;orthogonalLoop=1;jettySize=auto;html=1;exitX=0;exitY=1;exitDx=0;exitDy=0;entryX=1;entryY=0;entryDx=0;entryDy=0;" parent="1" source="8NPFuA1XheMR9wquFf6c-35" target="8NPFuA1XheMR9wquFf6c-40" edge="1">
          <mxGeometry relative="1" as="geometry" />
        </mxCell>
        <mxCell id="8NPFuA1XheMR9wquFf6c-45" style="edgeStyle=orthogonalEdgeStyle;rounded=0;orthogonalLoop=1;jettySize=auto;html=1;exitX=0.25;exitY=1;exitDx=0;exitDy=0;entryX=0.5;entryY=0;entryDx=0;entryDy=0;" parent="1" source="8NPFuA1XheMR9wquFf6c-35" target="8NPFuA1XheMR9wquFf6c-39" edge="1">
          <mxGeometry relative="1" as="geometry" />
        </mxCell>
        <mxCell id="8NPFuA1XheMR9wquFf6c-46" style="edgeStyle=orthogonalEdgeStyle;rounded=0;orthogonalLoop=1;jettySize=auto;html=1;exitX=0.75;exitY=1;exitDx=0;exitDy=0;" parent="1" source="8NPFuA1XheMR9wquFf6c-35" target="8NPFuA1XheMR9wquFf6c-38" edge="1">
          <mxGeometry relative="1" as="geometry" />
        </mxCell>
        <mxCell id="8NPFuA1XheMR9wquFf6c-48" style="edgeStyle=orthogonalEdgeStyle;rounded=0;orthogonalLoop=1;jettySize=auto;html=1;exitX=1;exitY=0.5;exitDx=0;exitDy=0;entryX=0;entryY=0;entryDx=0;entryDy=0;" parent="1" source="8NPFuA1XheMR9wquFf6c-35" target="8NPFuA1XheMR9wquFf6c-42" edge="1">
          <mxGeometry relative="1" as="geometry" />
        </mxCell>
        <mxCell id="8NPFuA1XheMR9wquFf6c-35" value="Project" style="whiteSpace=wrap;html=1;align=center;" parent="1" vertex="1">
          <mxGeometry x="470" y="500" width="100" height="40" as="geometry" />
        </mxCell>
        <mxCell id="8NPFuA1XheMR9wquFf6c-38" value="City" style="ellipse;whiteSpace=wrap;html=1;align=center;" parent="1" vertex="1">
          <mxGeometry x="560" y="580" width="100" height="40" as="geometry" />
        </mxCell>
        <mxCell id="8NPFuA1XheMR9wquFf6c-39" value="Location" style="ellipse;whiteSpace=wrap;html=1;align=center;" parent="1" vertex="1">
          <mxGeometry x="450" y="580" width="100" height="40" as="geometry" />
        </mxCell>
        <mxCell id="8NPFuA1XheMR9wquFf6c-40" value="Pname" style="ellipse;whiteSpace=wrap;html=1;align=center;" parent="1" vertex="1">
          <mxGeometry x="360" y="550" width="100" height="40" as="geometry" />
        </mxCell>
        <mxCell id="8NPFuA1XheMR9wquFf6c-42" value="PNumber" style="ellipse;whiteSpace=wrap;html=1;align=center;fontStyle=4;" parent="1" vertex="1">
          <mxGeometry x="660" y="540" width="100" height="40" as="geometry" />
        </mxCell>
        <mxCell id="8NPFuA1XheMR9wquFf6c-43" value="DNUM" style="ellipse;whiteSpace=wrap;html=1;align=center;fontStyle=4;" parent="1" vertex="1">
          <mxGeometry x="210" y="570" width="100" height="40" as="geometry" />
        </mxCell>
        <mxCell id="8NPFuA1XheMR9wquFf6c-59" style="edgeStyle=orthogonalEdgeStyle;rounded=0;orthogonalLoop=1;jettySize=auto;html=1;exitX=0.5;exitY=0;exitDx=0;exitDy=0;entryX=0.5;entryY=1;entryDx=0;entryDy=0;" parent="1" source="8NPFuA1XheMR9wquFf6c-51" edge="1">
          <mxGeometry relative="1" as="geometry">
            <mxPoint x="520" y="-90" as="targetPoint" />
          </mxGeometry>
        </mxCell>
        <mxCell id="8NPFuA1XheMR9wquFf6c-51" value="has" style="shape=rhombus;perimeter=rhombusPerimeter;whiteSpace=wrap;html=1;align=center;" parent="1" vertex="1">
          <mxGeometry x="460" y="20" width="120" height="60" as="geometry" />
        </mxCell>
        <mxCell id="8NPFuA1XheMR9wquFf6c-64" style="edgeStyle=orthogonalEdgeStyle;rounded=0;orthogonalLoop=1;jettySize=auto;html=1;exitX=1;exitY=0.5;exitDx=0;exitDy=0;entryX=0;entryY=0.5;entryDx=0;entryDy=0;" parent="1" target="8NPFuA1XheMR9wquFf6c-63" edge="1">
          <mxGeometry relative="1" as="geometry">
            <mxPoint x="570" y="-110" as="sourcePoint" />
          </mxGeometry>
        </mxCell>
        <mxCell id="8NPFuA1XheMR9wquFf6c-65" style="edgeStyle=orthogonalEdgeStyle;rounded=0;orthogonalLoop=1;jettySize=auto;html=1;exitX=0.75;exitY=0;exitDx=0;exitDy=0;entryX=0;entryY=1;entryDx=0;entryDy=0;" parent="1" target="8NPFuA1XheMR9wquFf6c-61" edge="1">
          <mxGeometry relative="1" as="geometry">
            <mxPoint x="545" y="-130" as="sourcePoint" />
          </mxGeometry>
        </mxCell>
        <mxCell id="8NPFuA1XheMR9wquFf6c-60" value="Gender" style="ellipse;whiteSpace=wrap;html=1;align=center;" parent="1" vertex="1">
          <mxGeometry x="390" y="-190" width="100" height="40" as="geometry" />
        </mxCell>
        <mxCell id="8NPFuA1XheMR9wquFf6c-61" value="Birthdate" style="ellipse;whiteSpace=wrap;html=1;align=center;" parent="1" vertex="1">
          <mxGeometry x="560" y="-180" width="100" height="40" as="geometry" />
        </mxCell>
        <mxCell id="8NPFuA1XheMR9wquFf6c-62" style="edgeStyle=orthogonalEdgeStyle;rounded=0;orthogonalLoop=1;jettySize=auto;html=1;exitX=0.5;exitY=1;exitDx=0;exitDy=0;" parent="1" source="8NPFuA1XheMR9wquFf6c-60" target="8NPFuA1XheMR9wquFf6c-60" edge="1">
          <mxGeometry relative="1" as="geometry" />
        </mxCell>
        <mxCell id="8NPFuA1XheMR9wquFf6c-63" value="Name" style="ellipse;whiteSpace=wrap;html=1;align=center;fontStyle=4;" parent="1" vertex="1">
          <mxGeometry x="610" y="-130" width="100" height="40" as="geometry" />
        </mxCell>
        <mxCell id="8NPFuA1XheMR9wquFf6c-66" style="edgeStyle=orthogonalEdgeStyle;rounded=0;orthogonalLoop=1;jettySize=auto;html=1;exitX=0;exitY=0;exitDx=0;exitDy=0;entryX=0.636;entryY=1.055;entryDx=0;entryDy=0;entryPerimeter=0;" parent="1" target="8NPFuA1XheMR9wquFf6c-60" edge="1">
          <mxGeometry relative="1" as="geometry">
            <mxPoint x="470" y="-130" as="sourcePoint" />
          </mxGeometry>
        </mxCell>
        <mxCell id="8NPFuA1XheMR9wquFf6c-67" value="dependent" style="shape=ext;margin=3;double=1;whiteSpace=wrap;html=1;align=center;" parent="1" vertex="1">
          <mxGeometry x="470" y="-130" width="100" height="40" as="geometry" />
        </mxCell>
        <mxCell id="8NPFuA1XheMR9wquFf6c-68" style="edgeStyle=orthogonalEdgeStyle;rounded=0;orthogonalLoop=1;jettySize=auto;html=1;exitX=0.25;exitY=1;exitDx=0;exitDy=0;entryX=0.32;entryY=0.157;entryDx=0;entryDy=0;entryPerimeter=0;" parent="1" source="8NPFuA1XheMR9wquFf6c-67" target="8NPFuA1XheMR9wquFf6c-51" edge="1">
          <mxGeometry relative="1" as="geometry">
            <Array as="points">
              <mxPoint x="498" y="-90" />
            </Array>
          </mxGeometry>
        </mxCell>
      </root>
    </mxGraphModel>
  </diagram>
</mxfile>
